<?xml version="1.0" encoding="UTF-8" standalone="no"?>
<svg
   xmlns:dc="http://purl.org/dc/elements/1.1/"
   xmlns:cc="http://web.resource.org/cc/"
   xmlns:rdf="http://www.w3.org/1999/02/22-rdf-syntax-ns#"
   xmlns:svg="http://www.w3.org/2000/svg"
   xmlns="http://www.w3.org/2000/svg"
   xmlns:sodipodi="http://sodipodi.sourceforge.net/DTD/sodipodi-0.dtd"
   xmlns:inkscape="http://www.inkscape.org/namespaces/inkscape"
   version="1.1"
   viewBox="0,0 342,320"
   width="684"
   height="640"
   id="svg1997"
   sodipodi:version="0.32"
   inkscape:version="0.44.1"
   sodipodi:docname="Mad_scientist_transparent_background.svg"
   sodipodi:docbase="C:\">
  <metadata
     id="metadata2084">
    <rdf:RDF>
      <cc:Work
         rdf:about="">
        <dc:format>image/svg+xml</dc:format>
        <dc:type
           rdf:resource="http://purl.org/dc/dcmitype/StillImage" />
      </cc:Work>
    </rdf:RDF>
  </metadata>
  <defs
     id="defs2082" />
  <sodipodi:namedview
     inkscape:window-height="573"
     inkscape:window-width="853"
     inkscape:pageshadow="2"
     inkscape:pageopacity="0.0"
     guidetolerance="10.0"
     gridtolerance="10.0"
     objecttolerance="10.0"
     borderopacity="1.0"
     bordercolor="#666666"
     pagecolor="#ffffff"
     id="base"
     inkscape:zoom="0.590625"
     inkscape:cx="342"
     inkscape:cy="320"
     inkscape:window-x="154"
     inkscape:window-y="154"
     inkscape:current-layer="svg1997" />
  <path
     d="M 109.72804,98.4118 C 115.6653,94.70101 87.809881,95.28063 76.850801,104.67413 C 71.247316,109.47712 86.244301,71.27503 98.247101,67.10014 C 110.2499,62.92526 73.719641,74.4062 71.632196,77.0155 C 69.544751,79.62481 89.897331,47.79129 103.98758,45.70384 C 118.01146,43.62622 74.763361,43.6164 74.763361,43.6164 C 74.763361,43.6164 93.028491,24.30755 112.33735,22.2201 C 131.6462,20.13266 85.200581,18.04522 85.200581,18.04522 C 91.462911,11.78289 124.86201,0.30194 145.21459,19.08894 C 145.21459,19.08894 163.04316,3.90222 175.48252,6.04241 C 175.48252,6.04241 162.95786,15.95777 161.91414,21.69824 C 161.91414,21.69824 190.09462,9.17358 200.53185,19.08893 C 200.53185,19.08893 193.74765,19.08894 189.0509,26.39499 C 216.76048,21.37671 239.67141,34.2229 246.45561,47.26942 C 246.45561,47.26942 227.66861,46.74757 227.66861,46.74757 C 234.97466,50.4006 252.71794,65.0127 248.02119,78.05922 C 248.02119,78.05922 232.36536,69.18758 232.36536,69.18758 C 232.36536,69.18758 242.18381,90.60097 239.67141,99.97738 C 239.01226,102.43737 225.05931,90.58388 225.05931,90.58388 C 225.05931,90.58388 229.57808,106.11704 226.10303,105.19599 C 224.53745,102.58669 216.70953,97.88994 216.70953,97.88994 C 216.70953,97.88994 220.36256,109.37088 217.23139,109.89274 C 214.10023,110.4146 208.88162,109.89274 211.49092,113.0239 C 211.99759,113.63191 205.56171,120.44835 198.87882,120.1833 C 195.48165,120.04857 203.04663,92.90426 198.64635,92.39463 C 185.85631,90.9133 156.3841,108.98233 144.36857,111.06425 C 119.81307,115.31896 104.46519,101.70108 109.72804,98.4118 z "
     style="fill:#d6d6d6;fill-opacity:1;fill-rule:evenodd;stroke:none"
     id="path24960" />
  <path
     d="M 97.842391,96.073615 C 90.456571,97.07402 81.549201,99.554975 76.379846,103.98585 C 70.744341,108.81629 85.827031,70.39587 97.898426,66.19712 C 93.242501,65.622635 75.284426,74.777105 69.077791,80.68713 C 69.108371,73.557905 87.470611,45.965785 107.32631,44.27247 C 121.53271,43.060935 74.280481,42.57917 74.280481,42.57917 C 74.280481,36.007565 92.649996,23.15997 112.0692,21.06059 C 131.4884,18.96122 84.777346,16.86185 84.777346,16.86185 C 91.075466,10.56373 124.66544,-0.98283 145.13434,17.911535 C 145.13434,17.911535 163.0648,2.638025 175.57525,4.790445 C 175.57525,4.790445 162.97901,14.76247 161.92933,20.535745 C 161.92933,20.535745 182.8778,8.350235 203.64281,16.679355 C 203.64281,16.679355 193.94476,17.911535 189.22117,25.25934 C 215.44621,18.98021 240.95243,32.72126 249.4183,49.53887 C 249.4183,49.53887 225.62319,46.1343 225.62319,46.1343 C 233.37706,48.590005 253.25207,64.09775 248.52848,77.21883 C 248.52848,77.21883 227.7104,69.235905 227.7104,69.235905 C 227.7104,69.235905 244.69739,89.066725 240.95243,103.36951 C 234.53935,94.34324 225.43537,89.81507 225.43537,89.81507 C 225.43537,89.81507 229.97996,105.437 226.48505,104.51069 C 224.91053,101.88648 217.03787,97.162885 217.03787,97.162885 C 217.03787,97.162885 220.71178,108.70944 217.56271,109.23428 C 214.41366,109.75912 207.86032,113.31807 211.78944,114.48644"
     style="fill:none;fill-opacity:1;fill-rule:evenodd;stroke:#020202;stroke-width:5.99999809;stroke-linecap:butt;stroke-linejoin:round;stroke-opacity:1"
     id="path29589" />
  <path
     d="M 210.2035,320.2444 C 209.79511,313.71014 217.16757,266.01733 215.66127,246.43534 C 215.66127,235.89969 267.62887,263.75787 288.34059,186.55961 C 288.34059,186.55961 273.90122,182.69619 273.90122,182.69619 C 267.5264,204.81991 238.69539,227.12078 219.42703,221.95784 C 193.88703,215.11442 192.69008,216.68576 190.43061,212.54342 C 188.17115,208.40107 189.40229,197.42077 172.7315,197.83866 C 158.04595,198.20678 154.22608,209.44882 153.82221,222.87189 C 139.13571,236.80524 109.84316,251.70742 86.495401,233.25515 C 86.495401,233.25515 74.821511,246.81192 74.821511,246.81192 C 88.378281,262.62814 129.42516,269.40652 150.51347,250.20111 C 150.51347,250.20111 149.38374,320.2444 149.38374,320.2444"
     style="fill:#faf6e6;fill-opacity:1;fill-rule:evenodd;stroke:black;stroke-width:6;stroke-linecap:butt;stroke-linejoin:miter;stroke-opacity:1"
     id="path4638" />
  <path
     d="M 158.27372,217.04422 C 158.27372,217.04422 144.21729,208.76547 130.77983,218.44044 C 117.34237,228.11543 102.29241,229.72791 97.992416,221.66543 C 93.692421,213.60296 101.75492,203.92798 96.917426,200.1655 C 92.079931,196.403 85.092441,195.328 88.317436,188.34053 C 91.542421,181.35305 97.148106,183.42507 99.067416,176.51557 C 101.75491,166.84059 87.242441,165.22809 88.317436,157.1656 C 88.924386,152.6135 95.842411,156.0906 98.529931,150.71563 C 101.21742,145.34063 104.75453,133.25128 100.14241,129.21568 C 95.842421,125.45318 95.304916,105.02825 108.2049,96.965775 C 111.45195,94.93636 104.88584,94.152845 96.322521,95.31274 M 213.01711,114.16953 C 221.44811,116.6766 228.95899,141.02669 212.73011,145.60851 C 212.73011,145.60851 216.19371,152.0847 215.66635,153.40312 C 211.53862,167.15037 202.26714,159.7383 202.26714,159.7383 C 199.34446,164.12231 200.59352,185.85585 184.45054,199.09354"
     style="fill:none;fill-opacity:1;fill-rule:evenodd;stroke:#020202;stroke-width:5.99999428;stroke-linecap:butt;stroke-linejoin:round;stroke-opacity:1"
     id="path29585" />
  <path
     d="M 198.33873,320.2444 C 198.33873,320.2444 211.14234,242.29299 200.22161,231.74884 C 200.22161,231.74884 188.54773,252.83714 152.39635,241.16326"
     style="fill:none;stroke:black;stroke-width:2.5;stroke-linecap:round;stroke-linejoin:round;stroke-miterlimit:4;stroke-dasharray:none;stroke-opacity:1"
     id="path4640" />
  <path
     d="M 152.19215,247.95496 C 153.21313,244.27943 147.50085,234.38488 156.91527,226.85334"
     style="fill:none;stroke:black;stroke-width:2.5;stroke-linecap:round;stroke-linejoin:round;marker:none;marker-start:none;marker-mid:none;marker-end:none;stroke-miterlimit:4;stroke-dasharray:none;stroke-dashoffset:0;stroke-opacity:1;visibility:visible;display:inline;overflow:visible"
     id="path4642" />
  <path
     d="M 164.07023,233.63172 C 164.07023,233.63172 154.17048,225.80055 155.30021,219.39874 C 156.42995,212.99693 162.9405,202.37584 173.10808,201.62269 C 183.27565,200.86954 190.80719,208.0245 187.04142,223.46415"
     style="fill:none;stroke:black;stroke-width:2.5;stroke-linecap:round;stroke-linejoin:round;marker:none;marker-start:none;marker-mid:none;marker-end:none;stroke-miterlimit:4;stroke-dasharray:none;stroke-dashoffset:0;stroke-opacity:1;visibility:visible;display:inline;overflow:visible"
     id="path4644" />
  <path
     d="M 193.9703,270.73713 C 192.08742,271.49029 188.45989,275.95733 189.38874,279.28968 C 191.02077,285.1448 197.7195,281.84105 197.87431,277.77906 C 198.0756,272.49738 197.39263,269.82012 193.9703,270.73713 z "
     style="fill:#050504;fill-opacity:1;fill-rule:evenodd;stroke:none"
     id="path4646" />
  <path
     d="M 168.58916,208.77765 C 165.19997,210.28395 159.85846,214.21193 163.56731,217.92078 C 165.6512,220.00467 173.25859,224.44789 178.38015,215.57709 C 182.94734,207.66649 174.28536,206.246 168.58916,208.77765 z "
     style="fill:none;stroke:black;stroke-width:4;stroke-linecap:butt;stroke-linejoin:miter;stroke-opacity:1"
     id="path4648" />
  <path
     d="M 282.69194,106.34874 C 282.38607,110.63099 251.36536,163.89581 245.03426,171.11997 C 243.67502,172.54716 244.65845,175.86951 247.25185,177.25704 C 259.02851,183.55785 304.00417,188.78789 313.57124,186.93619 C 316.19498,187.38485 318.00988,184.05386 317.56385,182.45254 C 311.86706,162.0002 313.01312,127.56357 311.31179,114.63343 C 322.23251,115.38658 340.06707,110.11451 342.32653,102.95955 C 342.32653,102.95955 342.32653,84.50729 342.32653,84.50729 C 342.32653,84.50729 329.76406,96.93433 318.46675,94.29829 C 345.2037,74.33971 331.3091,51.33495 321.10278,54.38114 C 309.64697,57.80026 331.88293,75.39513 303.40367,86.39018 C 309.82149,75.27419 308.61461,63.75616 303.4451,56.29577 C 301.36625,53.29566 294.63638,47.98428 286.72616,48.24967 C 275.68102,48.61141 273.11128,61.11404 279.97782,61.11404 C 289.73532,61.11404 305.40122,82.9881 280.0559,89.77936 C 264.64514,93.90866 275.204,81.50674 275.91355,78.85863 C 278.82678,67.98632 258.21445,73.44305 258.21445,85.63702 C 258.21445,103.40525 262.73337,103.33613 282.69194,106.34874 z "
     style="fill:#020202;fill-opacity:1;fill-rule:evenodd;stroke:none"
     id="path4650" />
  <path
     d="M 258.29167,161.80533 L 263.79741,151.09971 C 283.37339,160.58183 298.973,161.49945 308.14924,160.27596 C 308.76099,170.98157 308.14924,171.89919 308.14924,171.89919 C 280.31465,173.12269 268.07966,167.61695 258.29167,161.80533 z "
     style="fill:#f6c612;fill-opacity:1;fill-rule:evenodd;stroke:none"
     id="path4652" />
  <path
     d="M 285.82039,96.65402 C 291.32614,94.5129 304.47875,95.43052 306.92574,102.15977"
     style="fill:none;fill-opacity:1;fill-rule:evenodd;stroke:#eaeae7;stroke-width:1.20000005;stroke-linecap:round;stroke-linejoin:miter;stroke-miterlimit:4;stroke-dasharray:none;stroke-opacity:1"
     id="path4654" />
  <path
     d="M 22.182728,143.04138 C 22.182728,143.04138 21.921798,109.5485 21.921798,109.5485 C 16.412916,106.79406 12.599752,97.74715 31.759085,95.11768 C 55.702836,91.831585 55.239281,103.90787 47.892238,107.97453 C 47.892238,107.97453 47.892238,141.7958 47.892238,141.7958"
     style="fill:#72caba;fill-opacity:1;fill-rule:evenodd;stroke:black;stroke-width:6;stroke-linecap:butt;stroke-linejoin:miter;stroke-opacity:1"
     id="path4670" />
  <path
     d="M 65.896496,260.90872 C 83.025481,245.30912 101.37796,221.14502 98.930961,215.94515 C 96.483961,210.74528 64.978871,197.89854 57.026126,161.49945 C 72.013986,140.69997 62.175696,133.5519 53.661506,132.44136 C 46.626389,131.52374 36.8384,133.05311 33.473778,140.69998 C 12.368424,138.55885 5.3333071,148.95859 11.4508,157.82896 C 11.4508,157.82896 6.5568061,161.19358 6.5568061,166.69932 C 6.5568061,173.42857 13.591923,173.73444 12.06255,175.26381 C 12.06255,175.26381 8.3920541,180.46368 10.839051,184.44005 C 12.980174,190.25168 18.673615,188.41643 18.673615,188.41643 C 18.673615,188.41643 16.34479,198.20442 20.015291,204.62779 C 23.004544,209.85897 24.603412,214.72165 33.779652,215.3334 C 37.756023,218.39215 29.803281,232.1565 57.637876,263.35573 C 60.696626,263.96747 62.531871,263.35572 65.896496,260.90872 z "
     style="fill:#020202;fill-opacity:1;fill-rule:evenodd;stroke:none"
     id="path4656" />
  <path
     d="M 160.82884,214.28572 C 160.82884,214.28572 144.69272,206.95887 131.6462,216.35237 C 118.59968,225.74587 103.98757,227.31145 99.812681,219.48353 C 95.637801,211.65562 103.46572,202.26212 98.768971,198.6091 C 94.072221,194.95607 87.288021,193.91235 90.419191,187.12816 C 93.550351,180.34396 98.992941,182.35571 100.85641,175.64722 C 103.46571,166.25372 89.375471,164.68814 90.419191,156.86022 C 91.008481,152.44055 97.725241,155.8165 100.33455,150.59789 C 102.94385,145.37928 106.37806,133.64164 101.90013,129.72345 C 97.725251,126.07042 97.203381,106.23972 109.72804,98.4118 C 115.6653,94.70101 87.809881,95.28063 76.850801,104.67413 C 71.247316,109.47712 86.244301,71.27503 98.247101,67.10014 C 110.2499,62.92526 73.719641,74.4062 71.632196,77.0155 C 69.544751,79.62481 89.897331,47.79129 103.98758,45.70384 C 118.01146,43.62622 74.763361,43.6164 74.763361,43.6164 C 74.763361,43.6164 93.028491,24.30755 112.33735,22.2201 C 131.6462,20.13266 85.200581,18.04522 85.200581,18.04522 C 91.462911,11.78289 124.86201,0.30194 145.21459,19.08894 C 145.21459,19.08894 163.04316,3.90222 175.48252,6.04241 C 175.48252,6.04241 162.95786,15.95777 161.91414,21.69824 C 161.91414,21.69824 190.09462,9.17358 200.53185,19.08893 C 200.53185,19.08893 193.74765,19.08894 189.0509,26.39499 C 216.76048,21.37671 239.67141,34.2229 246.45561,47.26942 C 246.45561,47.26942 227.66861,46.74757 227.66861,46.74757 C 234.97466,50.4006 252.71794,65.0127 248.02119,78.05922 C 248.02119,78.05922 232.36536,69.18758 232.36536,69.18758 C 232.36536,69.18758 242.18381,90.60097 239.67141,99.97738 C 239.01226,102.43737 225.05931,90.58388 225.05931,90.58388 C 225.05931,90.58388 229.57808,106.11704 226.10303,105.19599 C 224.53745,102.58669 216.70953,97.88994 216.70953,97.88994 C 216.70953,97.88994 220.36256,109.37088 217.23139,109.89274 C 214.10023,110.4146 208.88162,109.89274 211.49092,113.0239 C 214.10023,116.15507 224.01558,130.76718 219.31883,138.07323 C 214.62209,145.37928 212.58383,152.69518 212.58383,152.69518 C 212.58383,166.78543 201.0537,162.60069 201.0537,162.60069 C 197.92253,167.29744 199.25525,186.65286 177.85895,198.65567 C 171.83051,202.13619 175.22583,207.9027 176.46167,211.6102 C 177.69751,215.31771 173.99308,219.76843 168.40349,219.72364 C 164.94935,219.69596 160.75133,213.52749 160.82884,214.28572 z "
     style="fill:#f2d6c6;fill-opacity:1;fill-rule:evenodd;stroke:none"
     id="path4678" />
  <path
     d="M 47.892238,241.76165 L 54.581596,252.38592 C 74.256171,234.28531 86.847901,213.82375 86.847901,213.82375 L 78.978071,206.74091 C 73.469191,222.48057 47.892238,241.76165 47.892238,241.76165 z "
     style="fill:#f6c612;fill-opacity:1;fill-rule:evenodd;stroke:none"
     id="path4658" />
  <path
     d="M 14.83895,174.4746 C 23.889255,177.22904 32.152577,172.50714 32.152577,172.50714"
     style="fill:none;stroke:#eaeae7;stroke-width:1.20000005;stroke-linecap:round;stroke-linejoin:miter;stroke-miterlimit:4;stroke-dasharray:none;stroke-opacity:1"
     id="path4660" />
  <path
     d="M 17.593391,158.34145 C 30.578611,160.7024 36.480984,154.80002 38.841933,152.43908"
     style="fill:none;stroke:#eaeae7;stroke-width:1.20000005;stroke-linecap:round;stroke-linejoin:miter;stroke-miterlimit:4;stroke-dasharray:none;stroke-opacity:1"
     id="path4662" />
  <path
     d="M 34.513526,145.35623 C 34.513526,150.07813 37.661459,155.19352 48.679221,151.65209"
     style="fill:none;stroke:#eaeae7;stroke-width:1.20000005;stroke-linecap:round;stroke-linejoin:miter;stroke-miterlimit:4;stroke-dasharray:none;stroke-opacity:1"
     id="path4664" />
  <path
     d="M 37.008246,162.47996 C 37.008246,158.90899 37.57379,155.41145 40.708078,152.64148"
     style="fill:none;stroke:#eaeae7;stroke-width:1.20000005;stroke-linecap:round;stroke-linejoin:miter;stroke-miterlimit:4;stroke-dasharray:none;stroke-opacity:1"
     id="path4666" />
  <path
     d="M 24.676238,188.2468 C 25.463221,203.59297 26.643696,208.31487 32.152577,207.92138 C 37.661459,207.52789 41.202883,198.87107 41.596374,179.1965 C 41.667625,175.63399 35.694001,171.73329 35.694001,171.73329 C 31.755802,174.88779 44.699368,177.52218 36.112458,186.08875 C 32.652686,189.54032 24.676238,188.2468 24.676238,188.2468 z "
     style="fill:#72caba;fill-opacity:1;fill-rule:evenodd;stroke:none"
     id="path4668" />
  <path
     d="M 25.856713,102.85914 C 35.694001,106.00708 43.563831,101.28518 43.563831,101.28518"
     style="fill:none;stroke:black;stroke-width:2.5;stroke-linecap:round;stroke-linejoin:miter;stroke-miterlimit:4;stroke-dasharray:none;stroke-opacity:1"
     id="path4672" />
  <path
     d="M 29.108944,120.7219 C 29.197067,124.7956 28.890775,127.63524 31.235327,127.50478 C 32.974375,127.40801 33.006296,125.87897 33.006889,120.87147 C 33.007403,116.52903 33.133862,112.55829 31.278792,112.58103 C 28.644579,112.61252 29.051519,118.06736 29.108944,120.7219 z "
     style="fill:#fefefe;fill-opacity:1;fill-rule:evenodd;stroke:none"
     id="path4674" />
  <path
     d="M 29.100529,134.48543 C 29.100529,135.72485 30.079018,136.24672 31.187973,136.18148 C 32.296927,136.11625 32.841844,135.38886 32.753556,134.35497 C 32.669565,133.3714 32.166462,132.52846 31.187973,132.52846 C 30.209484,132.52846 28.970064,132.98508 29.100529,134.48543 z "
     style="fill:#fefefe;fill-opacity:1;fill-rule:evenodd;stroke:none"
     id="path4676" />
  <path
     d="M 92.506631,192.59694 C 98.829491,198.06572 106.84999,199.14954 106.84999,199.14954"
     style="fill:none;stroke:black;stroke-width:2;stroke-linecap:round;stroke-linejoin:miter;stroke-opacity:1"
     id="path4680" />
  <path
     d="M 190.25326,254.41977 C 192.13497,257.45516 198.14846,254.41977 198.61288,251.32362 C 199.00394,248.7165 197.53538,245.72081 194.74269,245.44092 C 191.60095,245.12605 188.39604,251.42389 190.25326,254.41977 z "
     style="fill:#050504;fill-opacity:1;fill-rule:evenodd;stroke:none"
     id="path4683" />
  <path
     d="M 192.885,299.46885 C 191.34279,299.34532 188.39557,302.10058 188.39556,305.50634 C 188.39556,308.00255 189.32442,310.92462 190.8725,311.23423 C 192.42058,311.54385 195.18792,308.7176 195.82635,304.88712 C 196.46475,301.05663 194.93161,299.63277 192.885,299.46885 z "
     style="fill:#050504;fill-opacity:1;fill-rule:evenodd;stroke:none"
     id="path4685" />
  <path
     d="M 99.845501,180.26684 C 99.845501,180.26684 97.412111,186.36381 99.678321,186.97104 C 102.32805,187.68103 108.20513,188.00722 110.83686,189.71011 C 113.46859,191.413 116.56475,196.36685 120.43494,196.36685 C 124.30514,196.36685 130.34264,192.34184 133.4388,192.34184 C 136.53496,192.34184 141.48881,195.28319 144.12054,195.12838 C 146.75227,194.97358 159.44651,183.82741 162.85228,183.36299 C 166.25805,182.89857 169.97344,186.45915 174.15325,185.83992 C 178.33306,185.22068 191.80134,169.27548 192.26576,165.7149 C 192.73019,162.15432 192.73019,144.35142 191.80134,142.18412 C 190.87249,140.01681 183.75133,132.89564 181.73883,133.20526 C 179.72633,133.51488 170.74748,144.35142 170.12825,146.98316 C 169.50902,149.61489 168.11575,155.8072 166.87729,156.42643 C 165.63882,157.04566 155.88593,166.79856 153.87343,166.64375 C 151.86093,166.48894 147.21669,165.56009 145.359,166.48894 C 143.5013,167.41779 138.54746,174.38414 135.76092,174.53895 C 132.97438,174.69375 124.61475,176.24183 122.91187,175.31298 C 121.20898,174.38414 105.81076,169.0732 102.86941,168.76358 C 99.928061,168.45396 99.845501,180.26684 99.845501,180.26684 z "
     style="fill:#fefefe;fill-opacity:1;fill-rule:evenodd;stroke:black;stroke-width:2.70000005;stroke-linecap:butt;stroke-linejoin:miter;stroke-miterlimit:4;stroke-dasharray:none;stroke-opacity:1"
     id="path4687" />
  <path
     d="M 171.2119,145.12546 C 171.2119,145.12546 180.65518,154.56874 182.82249,157.51009 C 184.9898,160.45143 189.63403,169.27548 189.63403,169.27548"
     style="fill:none;stroke:black;stroke-width:2.5;stroke-linecap:butt;stroke-linejoin:miter;stroke-miterlimit:4;stroke-dasharray:none;stroke-opacity:1"
     id="path4689" />
  <path
     d="M 165.01959,158.12932 C 165.01959,158.12932 172.29556,169.5851 172.75998,171.28798 C 173.2244,172.99087 177.55902,183.82741 177.55902,183.82741"
     style="fill:none;stroke:black;stroke-width:2.5;stroke-linecap:butt;stroke-linejoin:miter;stroke-miterlimit:4;stroke-dasharray:none;stroke-opacity:1"
     id="path4691" />
  <path
     d="M 153.87342,166.33414 L 159.2917,185.68511"
     style="fill:none;stroke:black;stroke-width:2.5;stroke-linecap:butt;stroke-linejoin:miter;stroke-miterlimit:4;stroke-dasharray:none;stroke-opacity:1"
     id="path4693" />
  <path
     d="M 139.63111,171.75241 L 142.26284,194.66396"
     style="fill:none;stroke:black;stroke-width:2.5;stroke-linecap:butt;stroke-linejoin:miter;stroke-miterlimit:4;stroke-dasharray:none;stroke-opacity:1"
     id="path4695" />
  <path
     d="M 127.24649,176.08702 L 125.23399,194.97358"
     style="fill:none;stroke:black;stroke-width:2.5;stroke-linecap:butt;stroke-linejoin:miter;stroke-miterlimit:4;stroke-dasharray:none;stroke-opacity:1"
     id="path4697" />
  <path
     d="M 117.02917,172.52644 L 110.52724,189.24569"
     style="fill:none;stroke:black;stroke-width:2.5;stroke-linecap:butt;stroke-linejoin:miter;stroke-miterlimit:4;stroke-dasharray:none;stroke-opacity:1"
     id="path4699" />
  <path
     d="M 109.72808,98.41185 C 115.66534,94.70107 87.809921,95.28068 76.850851,104.67419 C 71.247366,109.47717 86.244351,71.27509 98.247151,67.10021 C 110.24994,62.92533 73.719701,74.40626 71.632246,77.01557 C 69.544806,79.62487 89.897371,47.79135 103.98762,45.7039 C 118.0115,43.62628 74.763411,43.61646 74.763411,43.61646 C 74.763411,43.61646 93.028531,24.30762 112.33739,22.22017 C 131.64624,20.13274 85.200631,18.0453 85.200631,18.0453 C 91.462961,11.78297 124.86204,0.30202 145.21462,19.08902 C 145.21462,19.08902 163.04317,3.90231 175.48255,6.0425 C 175.48255,6.0425 162.95788,15.95785 161.91416,21.69831 C 161.91416,21.69831 190.09464,9.17367 200.53187,19.08901 C 200.53187,19.08901 193.74766,19.08902 189.05092,26.39507 C 216.76049,21.37679 239.67141,34.22296 246.45561,47.26949 C 246.45561,47.26949 227.66861,46.74763 227.66861,46.74763 C 234.97466,50.40067 252.71794,65.01277 248.02119,78.05929 C 248.02119,78.05929 230.57329,70.21169 230.57329,70.21169 C 230.57329,70.21169 242.18382,90.60103 239.67141,99.97744 C 239.01227,102.43742 225.05932,90.58394 225.05932,90.58394 C 225.05932,90.58394 229.57809,106.11709 226.10304,105.19604 C 224.53746,102.58675 216.70954,97.89 216.70954,97.89 C 216.70954,97.89 219.06038,109.04538 215.92921,109.56725 C 212.79805,110.0891 210.67215,109.73003 213.28146,112.86119 C 213.78812,113.4692 205.56172,120.4484 198.87884,120.18334 C 195.48166,120.04862 203.04664,92.90432 198.64636,92.39469 C 185.85633,90.91336 156.38413,108.98239 144.3686,111.0643 C 119.81311,115.31902 104.46523,101.70113 109.72808,98.41185 z "
     style="fill:#d6d6d6;fill-opacity:1;fill-rule:evenodd;stroke:none;stroke-width:1.00000012px;stroke-linecap:butt;stroke-linejoin:miter;stroke-opacity:1"
     id="path7382" />
  <path
     d="M 150.46656,112.33261 C 156.738,107.85301 170.1768,98.89381 177.79212,97.99789 C 185.40744,97.10197 191.57032,105.87775 188.99112,118.60405 C 187.35045,126.69944 167.48904,141.00205 154.4982,134.28265 C 141.50736,127.56325 144.88556,115.42311 150.46656,112.33261 z "
     style="fill:#fefefe;fill-opacity:1;fill-rule:evenodd;stroke:black;stroke-width:2.5999999;stroke-linecap:butt;stroke-linejoin:miter;stroke-miterlimit:4;stroke-dasharray:none;stroke-opacity:1"
     id="path4703" />
  <path
     d="M 101.21025,96.47143 C 93.866396,97.46615 81.990781,100.26844 76.850801,104.67413 C 71.247316,109.47712 86.244301,71.27503 98.247101,67.10014 C 93.617631,66.52892 75.761601,75.63137 69.590236,81.50781 C 69.620641,74.4191 87.878541,46.98377 107.62141,45.30008 C 121.74708,44.09543 74.763361,43.6164 74.763361,43.6164 C 74.763361,37.08214 93.028491,24.30755 112.33735,22.2201 C 131.6462,20.13266 85.200581,18.04522 85.200581,18.04522 C 91.462911,11.78289 124.86201,0.30194 145.21459,19.08894 C 145.21459,19.08894 163.04316,3.90222 175.48252,6.04241 C 175.48252,6.04241 162.95786,15.95777 161.91414,21.69824 C 161.91414,21.69824 184.24357,10.08197 204.89059,18.36376 C 204.89059,18.36376 193.74765,19.08894 189.0509,26.39499 C 215.12691,20.15154 240.48819,33.81451 248.90596,50.53655 C 248.90596,50.53655 225.24606,47.15133 225.24606,47.15133 C 232.95587,49.59308 252.71794,65.0127 248.02119,78.05922 C 248.02119,78.05922 228.60147,69.353625 228.60147,69.353625 C 228.60147,69.353625 244.21187,89.83979 240.48819,104.0613 C 234.11156,95.08632 225.05931,90.08388 225.05931,90.08388 C 225.05931,90.08388 229.57808,106.11704 226.10303,105.19599 C 224.53745,102.58669 217.20953,97.38994 217.20953,97.38994 C 217.20953,97.38994 217.87174,106.28518 214.74057,106.80704 C 214.74057,106.80704 214.11857,111.59366 213.30604,116.38563"
     style="fill:none;fill-opacity:1;fill-rule:evenodd;stroke:#020202;stroke-width:6;stroke-linecap:butt;stroke-linejoin:round;stroke-miterlimit:4;stroke-dasharray:none;stroke-opacity:1"
     id="path24956" />
  <path
     d="M 188.54316,130.25101 C 196.15848,130.69897 200.63808,146.82553 200.63808,151.30513 C 200.63808,155.78473 199.03112,164.66573 199.03112,164.66573"
     style="fill:none;stroke:black;stroke-width:2.79999995;stroke-linecap:round;stroke-linejoin:miter;marker:none;marker-start:none;marker-mid:none;marker-end:none;stroke-miterlimit:4;stroke-dasharray:none;stroke-dashoffset:0;stroke-opacity:1;visibility:visible;display:inline;overflow:visible"
     id="path4707" />
  <path
     d="M 202.42992,141.89797 C 202.42992,141.89797 207.38081,145.29515 210.4932,136.6005 C 213.60559,127.90585 207.80544,124.87549 204.66972,126.21937 C 201.534,127.56325 197.50236,128.45917 200.19012,133.38673 C 202.87788,138.31429 202.87788,143.68981 202.42992,141.89797 z "
     style="fill:#e2b28a;fill-opacity:1;fill-rule:evenodd;stroke:none"
     id="path4711" />
  <path
     d="M 200.19012,145.03369 C 202.42992,138.76225 201.98196,134.73061 199.74216,132.93877 C 197.50236,131.14693 202.42992,125.32345 206.0136,125.77141 C 209.59728,126.21937 211.38912,130.25101 211.38912,130.25101"
     style="fill:none;stroke:black;stroke-width:2.5;stroke-linecap:round;stroke-linejoin:miter;stroke-miterlimit:4;stroke-dasharray:none;stroke-opacity:1"
     id="path4709" />
  <path
     d="M 102.98279,130.37664 C 120.00527,139.7838 129.58061,136.65344 138.37164,124.42753 C 145.62091,114.34578 136.04302,109.46592 136.04302,109.46592 L 135.85362,109.34002 C 116.05712,92.28458 109.96589,95.02563 102.04729,108.42634 C 94.128691,121.82704 102.98279,130.37664 102.98279,130.37664 z "
     style="fill:#fefefe;fill-opacity:1;fill-rule:evenodd;stroke:black;stroke-width:2.5999999;stroke-linecap:butt;stroke-linejoin:miter;marker:none;marker-start:none;marker-mid:none;marker-end:none;stroke-miterlimit:4;stroke-dasharray:none;stroke-dashoffset:0;stroke-opacity:1;visibility:visible;display:inline;overflow:visible"
     id="path4705" />
  <path
     d="M 169.66026,8.806465 C 160.47249,10.760125 152.47812,16.374265 145.35743,22.23942 C 131.60384,8.41116 108.9635,9.16818 92.335876,16.928 C 101.05938,17.870655 110.33441,17.08647 118.67681,19.89251 C 121.84943,23.843445 114.92266,24.79661 112.31546,24.77161 C 100.20195,26.62213 88.568656,32.674515 79.682211,40.561165 C 88.874981,41.10633 99.594891,41.1461 108.51718,43.45422 C 111.62618,47.43557 105.28994,47.768655 102.68079,48.487715 C 92.534366,53.13003 84.556286,63.604485 78.625001,71.80238 C 86.762816,68.66824 95.024871,66.03593 103.32928,63.402925 C 105.30496,69.22097 98.281601,68.057965 95.794476,71.524455 C 88.052621,79.41358 82.945671,90.166405 79.304366,100.6755 C 88.796076,95.53766 100.37533,92.724385 111.14201,94.561195 C 113.96521,95.323545 116.78621,93.308465 114.82729,94.40349 C 119.16195,101.4916 128.90438,103.05109 136.56705,103.76024 C 153.78829,105.02484 164.47589,99.34389 180.03606,94.09799 C 186.31853,92.177975 193.39505,88.49015 199.98476,90.70115 C 203.63174,95.84568 200.34681,103.00519 200.29358,108.73527 C 200.44147,111.28346 198.5115,115.93058 200.1083,117.44353 C 203.22361,116.74478 208.59619,105.78242 209.68569,102.96387 C 208.38309,98.425295 213.97637,106.42374 216.25837,105.70107 C 216.30908,100.81297 213.95024,97.67222 212.58396,92.955415 C 216.46063,95.038065 220.98468,99.533805 223.88746,101.21494 C 223.20183,95.78412 222.11194,89.90177 220.64373,84.58684 C 225.97211,89.008905 231.65867,93.225545 237.58062,96.83188 C 237.24406,85.36127 230.41834,75.639175 225.02873,65.84247 C 231.88927,68.88532 238.91701,72.243035 245.68768,75.044815 C 246.15165,63.61101 236.05435,55.243075 227.31387,49.414125 C 221.10022,46.49315 217.79828,43.98511 226.94331,44.967355 C 230.79039,44.35837 240.42115,46.71754 241.14827,44.50415 C 227.58361,28.656085 204.44402,25.003545 184.69899,29.52718 C 186.8687,25.112 190.81004,20.657865 194.85864,18.78082 C 182.61099,15.75285 170.37952,21.00447 159.13007,25.420095 C 159.52107,18.31188 165.71544,12.874135 169.66026,8.806465 z "
     style="fill:#d6d6d6;fill-opacity:1;fill-rule:evenodd;stroke:none;stroke-width:1.00000012px;stroke-linecap:butt;stroke-linejoin:miter;stroke-opacity:1"
     id="path32222" />
  <path
     d="M 105.44657,91.95043 C 105.44657,91.95043 98.198631,93.45547 100.88639,91.21567 C 103.57415,88.97587 106.56647,88.14277 108.80627,88.14277 C 111.04607,88.14277 104.32962,83.68122 101.63891,84.11113 C 98.905951,84.54779 110.27177,81.56577 115.07771,82.54327 C 117.74787,83.08637 112.83791,78.28765 109.70219,77.39173 C 118.05839,78.91529 128.96448,80.97541 133.44408,91.27849 C 137.92368,101.58157 139.26756,95.31013 139.26756,95.31013 C 139.26756,95.31013 134.74187,107.22996 138.85513,111.13213 C 141.63364,113.76805 124.22383,98.12762 107.12235,96.31247 C 105.93522,96.18647 104.35644,95.02604 103.33022,95.0624 C 98.878261,95.22014 106.39932,92.02372 105.44657,91.95043 z "
     style="fill:#d6d6d6;fill-opacity:1;fill-rule:evenodd;stroke:black;stroke-width:2.29999995;stroke-linecap:round;stroke-linejoin:round;stroke-miterlimit:4;stroke-dasharray:none;stroke-opacity:1"
     id="path4715" />
  <path
     d="M 139.21427,111.70572 C 149.52037,114.84933 150.399,108.45385 161.18207,93.21373 C 175.74966,72.62481 197.95032,77.83969 197.95032,77.83969 L 188.99112,81.42337 C 188.99112,81.42337 204.44574,80.52745 206.68554,86.12695 C 204.22176,87.69481 194.14266,87.47083 197.27838,88.36675 C 200.4141,89.26267 206.46156,93.51829 204.66972,95.75809 C 202.42992,95.75809 197.95032,94.41421 197.95032,94.41421 L 200.19012,100.68565 C 200.19012,100.68565 176.55611,91.45742 146.54279,112.9595"
     style="fill:#d6d6d6;fill-opacity:1;fill-rule:evenodd;stroke:black;stroke-width:2.29999995;stroke-linecap:round;stroke-linejoin:round;stroke-miterlimit:4;stroke-dasharray:none;stroke-opacity:1"
     id="path4717" />
  <path
     d="M 153.7164,137.65335 C 153.7164,137.65335 162.0491,142.71486 167.08164,139.23079"
     style="fill:#ebc09f;fill-opacity:1;fill-rule:evenodd;stroke:#e2b28a;stroke-width:2;stroke-linecap:round;stroke-linejoin:miter;stroke-opacity:1"
     id="path4721" />
  <path
     d="M 147.27626,111.99252 C 147.27626,111.99252 123.67506,133.10808 118.39236,141.82984 C 115.14971,147.18346 111.94199,159.36841 112.83791,162.05617 C 113.73383,164.74393 140.16348,146.82553 148.22676,146.37757 C 156.29004,145.92961 151.9704,129.85953 147.97339,130.38681 C 141.95787,131.18036 134.34,135.17857 132.54816,141.45001"
     style="fill:#f2d6c6;fill-opacity:1;fill-rule:evenodd;stroke:black;stroke-width:3;stroke-linecap:round;stroke-linejoin:miter;stroke-miterlimit:4;stroke-dasharray:none;stroke-opacity:1"
     id="path4701" />
  <path
     d="M 173.27554,120.26198 C 173.27554,120.26198 164.81919,115.36274 171.14639,109.03554 C 178.21197,101.96996 182.17927,111.35825 179.27587,114.64876 C 177.6459,116.49606 173.27554,116.19723 173.27554,114.06808 C 173.27554,111.93893 176.37249,108.84198 176.95316,113.29385"
     style="fill:none;stroke:black;stroke-width:2.29999995;stroke-linecap:round;stroke-linejoin:miter;stroke-miterlimit:4;stroke-dasharray:none;stroke-opacity:1"
     id="path4719" />
  <path
     d="M 111.61609,108.92567 C 111.61609,108.92567 111.91076,110.45782 113.82801,109.94656 C 116.38023,109.26597 116.03993,106.20331 114.33845,106.20331 C 112.80713,106.20331 111.95639,106.71375 111.61609,108.92567 z "
     style="fill:none;stroke:black;stroke-width:2.5;stroke-linecap:round;stroke-linejoin:miter;marker:none;marker-start:none;marker-mid:none;marker-end:none;stroke-miterlimit:4;stroke-dasharray:none;stroke-dashoffset:0;stroke-opacity:1;visibility:visible;display:inline;overflow:visible"
     id="path4723" />
  <path
     d="M 141.14469,86.19554 C 139.98334,78.84029 131.85385,72.83995 128.95046,72.83995"
     style="fill:none;stroke:#a8a8a8;stroke-width:2;stroke-linecap:round;stroke-linejoin:miter;stroke-opacity:1"
     id="path4725" />
  <path
     d="M 144.24164,84.25995 C 144.62876,77.67893 137.27351,69.54944 136.11215,69.35588"
     style="fill:none;stroke:#a8a8a8;stroke-width:2;stroke-linecap:round;stroke-linejoin:miter;stroke-opacity:1"
     id="path4727" />
  <path
     d="M 147.53215,83.48571 C 145.59656,75.54978 151.79046,61.22639 156.04876,58.323"
     style="fill:none;stroke:#a8a8a8;stroke-width:2;stroke-linecap:round;stroke-linejoin:miter;stroke-opacity:1"
     id="path4729" />
  <path
     d="M 192.84008,58.07395 C 192.84008,58.07395 200.56665,64.34699 200.98438,70.61316 C 200.98438,70.61316 204.53351,57.86507 194.50763,53.06101"
     style="fill:#6a526e;fill-opacity:1;fill-rule:evenodd;stroke:black;stroke-width:2.29999995;stroke-linecap:butt;stroke-linejoin:round;marker:none;marker-start:none;marker-mid:none;marker-end:none;stroke-miterlimit:4;stroke-dasharray:none;stroke-dashoffset:0;stroke-opacity:1;visibility:visible;display:inline;overflow:visible"
     id="path4757" />
  <path
     d="M 168.81804,44.92185 C 166.35241,50.23131 166.72931,58.28968 175.50195,61.63164 C 184.82413,65.18295 192.42062,61.00502 194.71822,55.78321 C 197.40615,49.67429 193.67385,40.95327 187.19881,38.65568 C 182.18017,36.87487 172.60869,36.75911 168.81804,44.92185 z "
     style="fill:#6a526e;fill-opacity:1;fill-rule:evenodd;stroke:black;stroke-width:2.29999995;stroke-linecap:butt;stroke-linejoin:miter;marker:none;marker-start:none;marker-mid:none;marker-end:none;stroke-miterlimit:4;stroke-dasharray:none;stroke-dashoffset:0;stroke-opacity:1;visibility:visible;display:inline;overflow:visible"
     id="path4751" />
  <path
     d="M 151.01622,83.09859 C 151.20978,78.84029 158.95215,67.42029 163.98469,65.4847"
     style="fill:none;stroke:#a8a8a8;stroke-width:2;stroke-linecap:round;stroke-linejoin:miter;stroke-opacity:1"
     id="path4731" />
  <path
     d="M 154.11317,83.29215 C 157.98435,76.90469 168.243,71.87215 174.43689,73.03351"
     style="fill:none;stroke:#a8a8a8;stroke-width:2;stroke-linecap:round;stroke-linejoin:miter;stroke-opacity:1"
     id="path4733" />
  <path
     d="M 23.87379,83.60607 C 23.621435,85.61833 24.548799,88.13114 27.258629,88.13114 C 30.596302,88.13114 32.453286,85.83987 32.348646,83.46999 C 32.271803,81.72965 30.454012,80.10628 28.147816,80.10628 C 25.737393,80.10628 24.115771,81.67653 23.87379,83.60607 z "
     style="fill:none;stroke:#76d2c1;stroke-width:2;stroke-linecap:butt;stroke-linejoin:miter;stroke-opacity:1"
     id="path4735" />
  <path
     d="M 40.493858,78.25961 C 38.55241,79.27484 37.396909,80.96944 38.171146,82.51792 C 38.945384,84.06639 41.655214,85.03419 43.590807,83.29215 C 45.5264,81.55012 43.844315,76.50758 40.493858,78.25961 z "
     style="fill:none;stroke:#76d2c1;stroke-width:2;stroke-linecap:butt;stroke-linejoin:miter;stroke-opacity:1"
     id="path4737" />
  <path
     d="M 26.17047,67.03317 C 26.17047,71.17906 30.235215,73.22707 33.138605,72.83995 C 36.041994,72.45283 38.945384,70.71501 38.945384,66.25894 C 38.945384,63.16199 35.461317,59.48436 31.009452,59.87148 C 27.533131,60.17377 26.17047,63.37124 26.17047,67.03317 z "
     style="fill:none;stroke:#76d2c1;stroke-width:2;stroke-linecap:butt;stroke-linejoin:miter;stroke-opacity:1"
     id="path4739" />
  <path
     d="M 44.171485,60.2586 C 44.260115,63.15334 45.719959,65.87181 49.010468,66.25894 C 51.900371,66.59894 56.172161,64.5169 56.172161,60.45216 C 56.172161,56.58097 52.282746,55.18795 49.978264,54.83894 C 46.050127,54.24402 44.104075,58.05691 44.171485,60.2586 z "
     style="fill:none;stroke:#76d2c1;stroke-width:2;stroke-linecap:butt;stroke-linejoin:miter;stroke-opacity:1"
     id="path4741" />
  <path
     d="M 36.622672,48.45148 C 39.113794,48.29437 41.848773,47.29012 42.042332,43.41894 C 42.235892,39.54775 37.20335,37.99928 35.654875,38.77352 C 34.106401,39.54775 31.783689,42.06402 31.977249,44.58029 C 32.170808,47.09656 34.051305,48.61365 36.622672,48.45148 z "
     style="fill:none;stroke:#76d2c1;stroke-width:2;stroke-linecap:butt;stroke-linejoin:miter;stroke-opacity:1"
     id="path4743" />
  <path
     d="M 40.106739,28.12775 C 41.655214,28.32131 45.719959,27.59513 45.719959,24.06301 C 45.719959,21.73225 43.598241,19.03047 41.074536,19.03047 C 38.558265,19.03047 36.235553,21.7403 36.041994,24.25657 C 35.848435,26.77284 38.558265,28.51487 40.106739,28.12775 z "
     style="fill:none;stroke:#76d2c1;stroke-width:2;stroke-linecap:butt;stroke-linejoin:miter;stroke-opacity:1"
     id="path4745" />
  <path
     d="M 122.03062,45.54846 C 122.23949,52.65013 125.36959,57.87193 133.93635,58.28968 C 143.11582,58.73731 153.77922,56.20096 154.19697,45.33959 C 154.55055,36.14651 147.9308,30.09191 138.53154,30.71852 C 129.13228,31.34514 122.03062,38.02906 122.03062,45.54846 z "
     style="fill:#6a526e;fill-opacity:1;fill-rule:evenodd;stroke:black;stroke-width:2.29999995;stroke-linecap:butt;stroke-linejoin:miter;marker:none;marker-start:none;marker-mid:none;marker-end:none;stroke-miterlimit:4;stroke-dasharray:none;stroke-dashoffset:0;stroke-opacity:1;visibility:visible;display:inline;overflow:visible"
     id="path4753" />
  <path
     d="M 137.61158,49.0966 C 143.79054,48.94891 146.47329,46.3529 146.47329,42.8934 C 146.47329,39.69085 143.3739,38.06056 138.79315,38.01947 C 133.90751,37.97696 130.66992,40.23489 130.37453,44.07497 C 130.07914,47.91504 133.89603,49.18541 137.61158,49.0966 z "
     style="fill:#9696ce;fill-opacity:1;fill-rule:evenodd;stroke:black;stroke-width:2.29999995;stroke-linecap:butt;stroke-linejoin:miter;stroke-miterlimit:4;stroke-dasharray:none;stroke-opacity:1"
     id="path4747" />
  <path
     d="M 154.61471,46.80169 C 156.07682,46.17508 164.43172,45.54846 167.77368,49.72591 C 167.77368,49.72591 170.07127,41.99764 170.07127,41.99764 C 162.96275,37.40415 153.77922,40.11778 153.77922,40.11778 L 154.61471,46.80169 z "
     style="fill:#6a526e;fill-opacity:1;fill-rule:evenodd;stroke:black;stroke-width:2.29999995;stroke-linecap:butt;stroke-linejoin:miter;marker:none;marker-start:none;marker-mid:none;marker-end:none;stroke-miterlimit:4;stroke-dasharray:none;stroke-dashoffset:0;stroke-opacity:1;visibility:visible;display:inline;overflow:visible"
     id="path4755" />
  <path
     d="M 176.89849,46.43809 C 174.75839,50.19267 179.11391,52.64128 182.06781,52.93667 C 184.49157,53.17905 188.12332,53.23206 189.00948,50.27816 C 189.99934,46.97863 185.74007,44.91529 183.24937,44.37036 C 179.96442,43.65166 177.80697,44.84424 176.89849,46.43809 z "
     style="fill:#9696ce;fill-opacity:1;fill-rule:evenodd;stroke:black;stroke-width:2.29999995;stroke-linecap:butt;stroke-linejoin:miter;stroke-miterlimit:4;stroke-dasharray:none;stroke-opacity:1"
     id="path4749" />
  <path
     d="M 90.121581,253.40952 C 91.411771,254.05461 97.062061,243.16016 95.771881,242.30003 C 95.771881,242.30003 90.576051,240.21347 87.565621,237.41807 L 79.371981,246.85515 C 79.371981,246.85515 83.083641,251.07322 90.121581,253.40952 z "
     style="fill:#c6c2a3;fill-opacity:1;fill-rule:evenodd;stroke:none"
     id="path4759" />
  <path
     d="M 275.38511,186.19057 C 273.57887,192.63042 270.97716,195.95712 270.97716,195.95712 C 270.5471,197.03228 281.37008,198.73941 281.80014,197.23419 C 281.80014,197.23419 284.15788,192.59118 284.53419,188.68857 C 284.53419,188.68857 276.44946,186.54535 275.38511,186.19057 z "
     style="fill:#c6c2a3;fill-opacity:1;fill-rule:evenodd;stroke:none"
     id="path4761" />
  <path
     d="M 154.53791,217.84848 C 154.53791,217.84848 144.69272,206.95887 131.6462,216.35237 C 118.59968,225.74587 103.98757,227.31145 99.812681,219.48353 C 95.637801,211.65562 104.63308,200.41072 98.768971,199.40265 C 93.675446,198.52704 87.288021,193.91235 90.419191,187.12816 C 93.550351,180.34396 98.992941,182.35571 100.85641,175.64722 C 103.46571,166.25372 89.375471,164.68814 90.419191,156.86022 C 91.008481,152.44055 97.725241,155.8165 100.33455,150.59789 C 102.94385,145.37928 106.37806,133.64164 101.90013,129.72345 C 97.725251,126.07042 93.203381,106.23972 105.72804,98.4118 C 108.88063,96.44143 106.50556,96.01614 98.191381,97.14229 M 211.49092,114.93354 C 219.67663,117.36766 226.96899,141.19084 211.21226,145.63936 C 211.21226,145.63936 214.06308,153.2072 214.06308,153.2072 C 210.28001,166.21658 201.0537,159.35806 201.0537,159.35806 C 198.1634,163.6935 198.51614,186.15559 182.12457,198.7703"
     style="fill:none;fill-opacity:1;fill-rule:evenodd;stroke:#020202;stroke-width:6.5;stroke-linecap:butt;stroke-linejoin:round;stroke-miterlimit:4;stroke-dasharray:none;stroke-opacity:1"
     id="path9130" />
  <path
     d="M 197.0544,115.02037 C 197.0544,115.02037 197.0544,119.94793 195.26256,122.63569 C 193.47072,125.32345 204.17255,114.02401 212.38649,117.16074"
     style="fill:none;stroke:black;stroke-width:2.5;stroke-linecap:round;stroke-linejoin:miter;marker:none;marker-start:none;marker-mid:none;marker-end:none;stroke-miterlimit:4;stroke-dasharray:none;stroke-dashoffset:0;stroke-opacity:1;visibility:visible;display:inline;overflow:visible"
     id="path4713" />
  <path
     d="M 90.121581,253.40952 C 91.411771,254.05461 97.062061,243.16016 95.771881,242.30003 C 95.771881,242.30003 90.576051,240.21347 87.565621,237.41807 L 79.371981,246.85515 C 79.371981,246.85515 83.083641,251.07322 90.121581,253.40952 z "
     style="fill:#c6c2a3;fill-opacity:1;fill-rule:evenodd;stroke:none"
     id="path15243" />
  <path
     d="M 211.49343,319.82908 C 211.49343,319.82908 223.88983,266.77296 219.80591,245.12821"
     style="fill:none;stroke:black;stroke-width:4;stroke-linecap:butt;stroke-linejoin:miter;stroke-opacity:1"
     id="path21364" />
  <path
     d="M 148.86824,319.92346 C 150.45695,281.79447 144.63504,278.93036 145.98139,253.53377"
     style="fill:none;stroke:black;stroke-width:6;stroke-linecap:butt;stroke-linejoin:miter;stroke-opacity:1"
     id="path21366" />
  <path
     d="M 180.19362,197.67009 C 174.14789,202.65682 169.76944,199.44769 178.65744,213.31298"
     style="fill:none;stroke:black;stroke-width:2.5;stroke-linecap:round;stroke-linejoin:round;marker:none;marker-start:none;marker-mid:none;marker-end:none;stroke-miterlimit:4;stroke-dasharray:none;stroke-dashoffset:0;stroke-opacity:1;visibility:visible;display:inline;overflow:visible"
     id="path23994" />
  <path
     d="M 163.96325,218.52413 C 160.92635,214.48419 159.67448,210.46882 144.38884,210.82434"
     style="fill:none;stroke:black;stroke-width:2.5;stroke-linecap:round;stroke-linejoin:round;marker:none;marker-start:none;marker-mid:none;marker-end:none;stroke-miterlimit:4;stroke-dasharray:none;stroke-dashoffset:0;stroke-opacity:1;visibility:visible;display:inline;overflow:visible"
     id="path23996" />
  <path
     d="M 96.000001,239 C 96.000001,239 122,246 143,232"
     style="fill:none;stroke:black;stroke-width:4;stroke-linecap:butt;stroke-linejoin:miter;stroke-opacity:1"
     id="path32210" />
  <path
     d="M 272,182 C 272,182 260,209 242,217"
     style="fill:none;stroke:black;stroke-width:4;stroke-linecap:butt;stroke-linejoin:miter;stroke-opacity:1"
     id="path32212" />
  <path
     d="M 97.000001,153 C 97.000001,153 107,133 102,128 C 97.000001,123 95.000001,105 102,98"
     style="fill:none;stroke:black;stroke-width:4;stroke-linecap:butt;stroke-linejoin:miter;stroke-opacity:1"
     id="path32214" />
  <path
     d="M 216.47436,117.98291 L 217.46572,105.6627"
     style="fill:none;stroke:black;stroke-width:8;stroke-linecap:butt;stroke-linejoin:miter;stroke-opacity:1"
     id="path32216" />
  <path
     d="M 70.000001,82.796045 C 70.000001,82.796045 83.447011,74.180405 91.447011,70.180405"
     style="fill:none;stroke:black;stroke-width:4;stroke-linecap:butt;stroke-linejoin:miter;stroke-opacity:1"
     id="path32218" />
  <path
     d="M 195.5,22 C 195.5,22 219.5,20.5 232,32.5"
     style="fill:none;stroke:black;stroke-width:4;stroke-linecap:butt;stroke-linejoin:miter;stroke-opacity:1"
     id="path32220" />
</svg>
